<svg width="100" height="150" viewBox="0 0 100 100" fill="none" xmlns="http://www.w3.org/2000/svg">
    <g color="#424024">
        <ellipse cx="50" cy="50" rx="45" ry="22.5" stroke="currentColor"></ellipse>
        <ellipse cx="50" cy="50" rx="45" ry="22.5" stroke="currentColor" transform="rotate(30, 50, 50)"></ellipse>
        <ellipse cx="50" cy="50" rx="45" ry="22.5" stroke="currentColor" transform="rotate(60, 50, 50)"></ellipse>
        <ellipse cx="50" cy="50" rx="45" ry="22.5" stroke="currentColor" transform="rotate(90, 50, 50)"></ellipse>
        <ellipse cx="50" cy="50" rx="45" ry="22.5" stroke="currentColor" transform="rotate(120, 50, 50)"></ellipse>
        <ellipse cx="50" cy="50" rx="45" ry="22.5" stroke="currentColor" transform="rotate(150, 50, 50)"></ellipse>
        <circle cx="50" cy="50" r="10" stroke="currentColor" fill="#931F1D"></circle>
        <circle cx="50" cy="5" r="2" stroke="currentColor" fill="#931F1D" transform="rotate(60, 50, 50)"></circle>
        <circle cx="50" cy="5" r="2" stroke="currentColor" fill="#931F1D" transform="rotate(150, 50, 50)"></circle>
        <circle cx="50" cy="5" r="2" stroke="currentColor" fill="#931F1D" transform="rotate(240, 50, 50)"></circle>
        <circle cx="50" cy="5" r="2" stroke="currentColor" fill="#931F1D" transform="rotate(330, 50, 50)"></circle>
    </g>
</svg>
