<svg width="100" height="150" viewBox="0 0 100 100" fill="none" xmlns="http://www.w3.org/2000/svg">
    <g color="#931f1d">
        <g>
            <path d="M52,35 Q60,20 55,0 l-10,4 l4,24 l2,10 Z" fill="currentColor" stroke="#424024"></path>
        </g>
        <g transform="rotate(10, 50, 50)">
            <path d="M52,35 Q60,20 55,0 l-10,4 l4,24 l2,10 Z" fill="currentColor" stroke="#424024"></path>
        </g>
        <g transform="rotate(20, 50, 50)">
            <path d="M52,35 Q60,20 55,0 l-10,4 l4,24 l2,10 Z" fill="currentColor" stroke="#424024"></path>
        </g>
        <g transform="rotate(30, 50, 50)">
            <path d="M52,35 Q60,20 55,0 l-10,4 l4,24 l2,10 Z" fill="currentColor" stroke="#424024"></path>
        </g>
        <g transform="rotate(40, 50, 50)">
            <path d="M52,35 Q60,20 55,0 l-10,4 l4,24 l2,10 Z" fill="currentColor" stroke="#424024"></path>
        </g>
        <g transform="rotate(50, 50, 50)">
            <path d="M52,35 Q60,20 55,0 l-10,4 l4,24 l2,10 Z" fill="currentColor" stroke="#424024"></path>
        </g>
        <g transform="rotate(60, 50, 50)">
            <path d="M52,35 Q60,20 55,0 l-10,4 l4,24 l2,10 Z" fill="currentColor" stroke="#424024"></path>
        </g>
        <g transform="rotate(70, 50, 50)">
            <path d="M52,35 Q60,20 55,0 l-10,4 l4,24 l2,10 Z" fill="currentColor" stroke="#424024"></path>
        </g>
        <g transform="rotate(80, 50, 50)">
            <path d="M52,35 Q60,20 55,0 l-10,4 l4,24 l2,10 Z" fill="currentColor" stroke="#424024"></path>
        </g>
        <g transform="rotate(90, 50, 50)">
            <path d="M52,35 Q60,20 55,0 l-10,4 l4,24 l2,10 Z" fill="currentColor" stroke="#424024"></path>
        </g>
        <g transform="rotate(100, 50, 50)">
            <path d="M52,35 Q60,20 55,0 l-10,4 l4,24 l2,10 Z" fill="currentColor" stroke="#424024"></path>
        </g>
        <g transform="rotate(110, 50, 50)">
            <path d="M52,35 Q60,20 55,0 l-10,4 l4,24 l2,10 Z" fill="currentColor" stroke="#424024"></path>
        </g>
        <g transform="rotate(120, 50, 50)">
            <path d="M52,35 Q60,20 55,0 l-10,4 l4,24 l2,10 Z" fill="currentColor" stroke="#424024"></path>
        </g>
        <g transform="rotate(130, 50, 50)">
            <path d="M52,35 Q60,20 55,0 l-10,4 l4,24 l2,10 Z" fill="currentColor" stroke="#424024"></path>
        </g>
        <g transform="rotate(140, 50, 50)">
            <path d="M52,35 Q60,20 55,0 l-10,4 l4,24 l2,10 Z" fill="currentColor" stroke="#424024"></path>
        </g>
        <g transform="rotate(150, 50, 50)">
            <path d="M52,35 Q60,20 55,0 l-10,4 l4,24 l2,10 Z" fill="currentColor" stroke="#424024"></path>
        </g>
        <g transform="rotate(160, 50, 50)">
            <path d="M52,35 Q60,20 55,0 l-10,4 l4,24 l2,10 Z" fill="currentColor" stroke="#424024"></path>
        </g>
        <g transform="rotate(170, 50, 50)">
            <path d="M52,35 Q60,20 55,0 l-10,4 l4,24 l2,10 Z" fill="currentColor" stroke="#424024"></path>
        </g>
        <g transform="rotate(180, 50, 50)">
            <path d="M52,35 Q60,20 55,0 l-10,4 l4,24 l2,10 Z" fill="currentColor" stroke="#424024"></path>
        </g>
        <g transform="rotate(190, 50, 50)">
            <path d="M52,35 Q60,20 55,0 l-10,4 l4,24 l2,10 Z" fill="currentColor" stroke="#424024"></path>
        </g>
        <g transform="rotate(200, 50, 50)">
            <path d="M52,35 Q60,20 55,0 l-10,4 l4,24 l2,10 Z" fill="currentColor" stroke="#424024"></path>
        </g>
        <g transform="rotate(210, 50, 50)">
            <path d="M52,35 Q60,20 55,0 l-10,4 l4,24 l2,10 Z" fill="currentColor" stroke="#424024"></path>
        </g>
        <g transform="rotate(220, 50, 50)">
            <path d="M52,35 Q60,20 55,0 l-10,4 l4,24 l2,10 Z" fill="currentColor" stroke="#424024"></path>
        </g>
        <g transform="rotate(230, 50, 50)">
            <path d="M52,35 Q60,20 55,0 l-10,4 l4,24 l2,10 Z" fill="currentColor" stroke="#424024"></path>
        </g>
        <g transform="rotate(240, 50, 50)">
            <path d="M52,35 Q60,20 55,0 l-10,4 l4,24 l2,10 Z" fill="currentColor" stroke="#424024"></path>
        </g>
        <g transform="rotate(250, 50, 50)">
            <path d="M52,35 Q60,20 55,0 l-10,4 l4,24 l2,10 Z" fill="currentColor" stroke="#424024"></path>
        </g>
        <g transform="rotate(260, 50, 50)">
            <path d="M52,35 Q60,20 55,0 l-10,4 l4,24 l2,10 Z" fill="currentColor" stroke="#424024"></path>
        </g>
        <g transform="rotate(270, 50, 50)">
            <path d="M52,35 Q60,20 55,0 l-10,4 l4,24 l2,10 Z" fill="currentColor" stroke="#424024"></path>
        </g>
        <g transform="rotate(280, 50, 50)">
            <path d="M52,35 Q60,20 55,0 l-10,4 l4,24 l2,10 Z" fill="currentColor" stroke="#424024"></path>
        </g>
        <g transform="rotate(290, 50, 50)">
            <path d="M52,35 Q60,20 55,0 l-10,4 l4,24 l2,10 Z" fill="currentColor" stroke="#424024"></path>
        </g>
        <g transform="rotate(300, 50, 50)">
            <path d="M52,35 Q60,20 55,0 l-10,4 l4,24 l2,10 Z" fill="currentColor" stroke="#424024"></path>
        </g>
        <g transform="rotate(310, 50, 50)">
            <path d="M52,35 Q60,20 55,0 l-10,4 l4,24 l2,10 Z" fill="currentColor" stroke="#424024"></path>
        </g>
        <g transform="rotate(320, 50, 50)">
            <path d="M52,35 Q60,20 55,0 l-10,4 l4,24 l2,10 Z" fill="currentColor" stroke="#424024"></path>
        </g>
        <g transform="rotate(330, 50, 50)">
            <path d="M52,35 Q60,20 55,0 l-10,4 l4,24 l2,10 Z" fill="currentColor" stroke="#424024"></path>
        </g>
        <g transform="rotate(340, 50, 50)">
            <path d="M52,35 Q60,20 55,0 l-10,4 l4,24 l2,10 Z" fill="currentColor" stroke="#424024"></path>
        </g>
        <g transform="rotate(350, 50, 50)">
            <path d="M52,35 Q60,20 55,0 l-10,4 l4,24 l2,10 Z" fill="currentColor" stroke="#424024"></path>
        </g>

        <circle cx="50" cy="50" r="15" stroke="#424024" fill="currentColor"></circle>
    </g>
</svg>
